<svg width="470" height="129" viewBox="0 0 470 129" fill="none" xmlns="http://www.w3.org/2000/svg">
<path d="M275.33 3.87428C275.676 1.41319 277.951 -0.30153 280.412 0.044354C282.873 0.390238 284.588 2.66574 284.242 5.12684L267.402 124.949C267.056 127.41 264.781 129.125 262.32 128.779C259.859 128.433 258.144 126.158 258.49 123.697L275.33 3.87428Z" fill="url(#paint0_linear_164_30)"/>
<path d="M12.5 78.7363L12.4091 62.1453H14.7727L42.5909 32.5999H58.8636L27.1364 66.2363H25L12.5 78.7363ZM0 102.418V9.32716H13.5909V102.418H0ZM44.0909 102.418L19.0909 69.2363L28.4545 59.7363L60.7727 102.418H44.0909Z" fill="#E8E6E3"/>
<path d="M68.69 102.418V32.5999H82.2809V102.418H68.69ZM75.5536 21.8272C73.19 21.8272 71.1597 21.0393 69.4627 19.4635C67.7961 17.8575 66.9627 15.9484 66.9627 13.7363C66.9627 11.4938 67.7961 9.58474 69.4627 8.00898C71.1597 6.40292 73.19 5.59989 75.5536 5.59989C77.9173 5.59989 79.9324 6.40292 81.5991 8.00898C83.2961 9.58474 84.1445 11.4938 84.1445 13.7363C84.1445 15.9484 83.2961 17.8575 81.5991 19.4635C79.9324 21.0393 77.9173 21.8272 75.5536 21.8272Z" fill="#E8E6E3"/>
<path d="M130.596 32.5999V43.509H92.4595V32.5999H130.596ZM102.687 15.8726H116.278V81.9181C116.278 84.5544 116.672 86.5393 117.46 87.8726C118.247 89.1757 119.263 90.0696 120.505 90.5544C121.778 91.009 123.157 91.2363 124.641 91.2363C125.732 91.2363 126.687 91.1605 127.505 91.009C128.323 90.8575 128.96 90.7363 129.414 90.6453L131.869 101.873C131.081 102.176 129.96 102.479 128.505 102.782C127.05 103.115 125.232 103.297 123.05 103.327C119.475 103.388 116.141 102.751 113.05 101.418C109.96 100.085 107.46 98.0241 105.55 95.2363C103.641 92.4484 102.687 88.9484 102.687 84.7363V15.8726Z" fill="#E8E6E3"/>
<path d="M158.161 60.9635V102.418H144.57V9.32716H157.979V43.9635H158.843C160.479 40.206 162.979 37.2211 166.343 35.009C169.706 32.7969 174.1 31.6908 179.525 31.6908C184.312 31.6908 188.494 32.6757 192.07 34.6453C195.676 36.615 198.464 39.5544 200.434 43.4635C202.434 47.3423 203.434 52.1908 203.434 58.009V102.418H189.843V59.6453C189.843 54.5241 188.525 50.5544 185.888 47.7363C183.252 44.8878 179.585 43.4635 174.888 43.4635C171.676 43.4635 168.797 44.1453 166.252 45.509C163.737 46.8726 161.752 48.8726 160.297 51.509C158.873 54.115 158.161 57.2666 158.161 60.9635Z" fill="#E8E6E3"/>
<path d="M370.682 103.873C364.652 103.873 359.318 102.342 354.682 99.2817C350.076 96.2211 346.47 91.9938 343.864 86.5999C341.258 81.1757 339.955 74.9181 339.955 67.8272C339.955 60.6756 341.258 54.3878 343.864 48.9635C346.47 43.509 350.076 39.2666 354.682 36.2363C359.318 33.1756 364.652 31.6453 370.682 31.6453C376.712 31.6453 382.03 33.1756 386.636 36.2363C391.242 39.2969 394.849 43.5393 397.455 48.9635C400.091 54.3878 401.409 60.6756 401.409 67.8272C401.409 74.9181 400.106 81.1757 397.5 86.5999C394.894 91.9938 391.273 96.2211 386.636 99.2817C382.03 102.342 376.712 103.873 370.682 103.873ZM370.682 96.4635C375.53 96.4635 379.636 95.1605 383 92.5544C386.364 89.9484 388.909 86.4787 390.636 82.1453C392.394 77.812 393.273 73.0393 393.273 67.8272C393.273 62.615 392.394 57.8272 390.636 53.4635C388.909 49.0999 386.364 45.5999 383 42.9635C379.636 40.3272 375.53 39.009 370.682 39.009C365.864 39.009 361.758 40.3272 358.364 42.9635C355 45.5999 352.439 49.0999 350.682 53.4635C348.955 57.8272 348.091 62.615 348.091 67.8272C348.091 73.0393 348.955 77.812 350.682 82.1453C352.439 86.4787 355 89.9484 358.364 92.5544C361.727 95.1605 365.833 96.4635 370.682 96.4635Z" fill="#E8E6E3" fill-opacity="0.4"/>
<path d="M468.64 47.9181L461.23 50.009C460.503 47.9181 459.473 46.0241 458.14 44.3272C456.806 42.6302 455.064 41.2817 452.912 40.2817C450.791 39.2817 448.155 38.7817 445.003 38.7817C440.276 38.7817 436.397 39.9029 433.367 42.1453C430.337 44.3878 428.821 47.2817 428.821 50.8272C428.821 53.8272 429.852 56.2666 431.912 58.1453C434.003 59.9938 437.215 61.4635 441.549 62.5544L452.094 65.1453C457.943 66.5696 462.321 68.8272 465.23 71.9181C468.17 75.009 469.64 78.8878 469.64 83.5544C469.64 87.4938 468.549 90.9938 466.367 94.0544C464.185 97.115 461.14 99.5241 457.23 101.282C453.352 103.009 448.852 103.873 443.73 103.873C436.912 103.873 431.291 102.342 426.867 99.2817C422.443 96.1908 419.609 91.7363 418.367 85.9181L426.14 84.009C427.14 88.1605 429.094 91.2969 432.003 93.4181C434.943 95.5393 438.806 96.5999 443.594 96.5999C448.958 96.5999 453.246 95.4029 456.458 93.009C459.67 90.5847 461.276 87.5544 461.276 83.9181C461.276 81.0999 460.337 78.7363 458.458 76.8272C456.579 74.8878 453.73 73.4635 449.912 72.5544L438.503 69.8272C432.443 68.3726 427.958 66.0696 425.049 62.9181C422.14 59.7666 420.685 55.8575 420.685 51.1908C420.685 47.3423 421.73 43.9635 423.821 41.0544C425.912 38.115 428.791 35.812 432.458 34.1453C436.124 32.4787 440.306 31.6453 445.003 31.6453C451.397 31.6453 456.503 33.0999 460.321 36.009C464.17 38.8878 466.943 42.8575 468.64 47.9181Z" fill="#E8E6E3" fill-opacity="0.4"/>
<defs>
<linearGradient id="paint0_linear_164_30" x1="234.82" y1="0" x2="234.82" y2="128.824" gradientUnits="userSpaceOnUse">
<stop stop-color="#D4A574" stop-opacity="0.1"/>
<stop offset="0.25" stop-color="#D4A574"/>
<stop offset="0.75" stop-color="#D4A574"/>
<stop offset="1" stop-color="#D4A574" stop-opacity="0.1"/>
</linearGradient>
</defs>
</svg>
